<svg xmlns="http://www.w3.org/2000/svg" width="340.8" height="321.6" viewBox="0 0 256 240.6"><path fill="#be1e2d" d="M134.4 58.2a12.9 12.9 0 0 1-23 .5c-70.5-127.1-214.7 1.1 7.7 118.7a29.6 29.6 0 0 0 30.6-2c215.3-151 47.1-241-15.3-117.2z"/><ellipse cx="150.7" cy="223.8" fill="#be1e2d" rx="11" ry="15.3" transform="rotate(-8.4 150.002 222.539)"/><ellipse cx="125.3" cy="225.2" fill="#be1e2d" rx="15.5" ry="11" transform="rotate(-85.8 125.406 225.226)"/><ellipse cx="108.2" cy="201.6" fill="#be1e2d" rx="12.8" ry="9.1" transform="rotate(-70.7 109.19 202.677)"/><ellipse cx="167.6" cy="197.5" fill="#be1e2d" rx="9.1" ry="12.8" transform="matrix(.81 -.58 .58 .81 -83.69 134.53)"/><path fill="#fff" d="M61.4 92.9l-1.3-.2c-.1 1.7-.1 3.1-.1 3.7a14.3 14.3 0 0 0 .2 3.4 4.8 4.8 0 0 1-2.8.8c-1.7 0-2.3-.4-2.3-1.3s.5-10.6.5-13.5-.2-3.4-.7-4.2a28.4 28.4 0 0 1 6.6-.7c4.6 0 8.2 1.7 8.2 5.5s-1.4 4.1-3.7 5.1c3.1 4.9 4.1 6 5.2 6.6-1.2 1.8-2.7 2.6-3.8 2.6s-3.3-3.5-6-7.8zm-.6-2.6c2.7 0 4-1.2 4-3.3s-1.5-3.3-3.8-3.3h-.5l-.3 6.6zm11.1 3.6c0-5.4 3.3-9 8.2-9s6.5 2.6 6.5 6.7-3.4 9-8.3 9-6.4-2.6-6.4-6.7zm9.7-2.1c0-3.1-.6-4.8-2.1-4.8s-2.6 2.7-2.6 6.7.5 4.8 2 4.8 2.7-2.7 2.7-6.7zm6.2 2.4c0-5.8 3.6-9.3 8.1-9.3 2.9 0 4.3 1 4.3 2.5a2 2 0 0 1-1.3 1.9c-1.5-1.7-2.8-2.1-3.3-2.1s-2.8 2-2.8 5.8 1.2 4.5 2.8 4.5 1.9-.5 3.9-2.1a1.5 1.5 0 0 1-.1 2 6.6 6.6 0 0 1-5.3 3.2c-3.9 0-6.3-2.5-6.3-6.4zm14.3 5.4c0-.8.7-13.2.7-16.5s-.4-3.7-.9-4.3a9.1 9.1 0 0 1 3.7-.9c1.2 0 2 .4 2 2.4l-.9 19.6a3.7 3.7 0 0 1-2.4.6c-1.2 0-2-.3-2.2-.9zm5.3-6.7c0-.4.1-.6.6-1.1a57.9 57.9 0 0 0 4-4.3 6.5 6.5 0 0 0 1.3-2.9c2.6.3 3 1.2 3 2s-.2 1.1-1.2 2-1.7 1.5-3.3 2.8c3.2 5.2 4.1 6.1 5 6.1-1.1 2.3-2.3 3.1-3.4 3.1s-3.2-3.2-6-7.7z"/><path fill="#fff" d="M115.4 104.6h1.1c4.1 0 6.3-3 6.3-3.9a7.1 7.1 0 0 0-.5-2c-2.4-7.6-4-11.3-5-12.1a4.5 4.5 0 0 1 3.2-1.6c1.3 0 2.2.6 3.1 2.5a55.2 55.2 0 0 1 2.6 8.5 27.3 27.3 0 0 0 2.1-9.1 5.3 5.3 0 0 0-.4-2.3 3.2 3.2 0 0 1 1.9-.7c1.2 0 1.9.5 1.9 2.1s-2.4 9.3-5.4 14.4-6.1 7.3-8.2 7.3-2.6-.9-2.7-3.1zm31.1-11.7l-1.4-.2c0 1.7-.1 3.1-.1 3.7a14.3 14.3 0 0 0 .2 3.4 4.7 4.7 0 0 1-2.7.8c-1.8 0-2.3-.4-2.4-1.3s.5-10.6.5-13.5-.1-3.4-.7-4.2a29 29 0 0 1 6.6-.7c4.6 0 8.3 1.7 8.3 5.5s-1.5 4.1-3.8 5.1c3.1 4.9 4.2 6 5.2 6.6a4.9 4.9 0 0 1-3.7 2.6c-2.3 0-3.4-3.5-6-7.8zm-.6-2.6c2.6 0 4-1.2 4-3.3s-1.6-3.3-3.9-3.3h-.5l-.2 6.6zm11.1 3.6c0-5.4 3.3-9 8.2-9s6.4 2.6 6.4 6.7-3.3 9-8.2 9-6.4-2.6-6.4-6.7zm9.6-2.1c0-3.1-.5-4.8-2-4.8s-2.7 2.7-2.7 6.7.6 4.8 2 4.8 2.7-2.7 2.7-6.7zm6.2 3.2c0-5.8 3.1-10.1 7.5-10.1a5.6 5.6 0 0 1 3 .8 4.6 4.6 0 0 1 2.5-.8c.9 0 1.5.2 1.5.7s-.8 6.2-.8 9.9.4 3.1 1.2 3.6a4.7 4.7 0 0 1-3.3 1.5c-1.4 0-2.5-.7-2.5-2.7 0-.4.2-1.7.3-2.9-1.9 3.9-4.1 5.6-5.9 5.6s-3.5-1.9-3.5-5.6zm9.6-6.9c0-.8-1.3-1.4-1.6-1.4-1.8 0-3.3 4.1-3.3 8.3 0 1.5.4 2.1 1 2.1s3.9-6.2 3.9-9zm6.9 6.9c0-5.8 3.1-10.1 7.1-10.1a4.2 4.2 0 0 1 2.8 1v-3.3c0-2.1-.2-3-.9-3.7a10.2 10.2 0 0 1 3.7-1c1.4 0 2.1.5 2.1 2.4s-.7 12.1-.7 14 .3 4.4 1 5a4.8 4.8 0 0 1-3.2 1.3c-1.4 0-2.5-.8-2.5-2.9s.1-2.3.2-3.2c-1.9 4.4-4.3 6.1-6.1 6.1s-3.5-1.9-3.5-5.6zm9.8-6.9c0-.7-1.4-1.4-1.8-1.4S194 90.8 194 95c0 1.5.4 2.1 1 2.1s4.1-6.2 4.1-9zM95.7 128.9l-1.3-.2c-.1 1.7-.1 3.1-.1 3.7a28.4 28.4 0 0 0 .1 3.4 4.3 4.3 0 0 1-2.7.8c-1.8 0-2.3-.4-2.4-1.3s.6-10.6.6-13.5-.2-3.4-.7-4.2a27.8 27.8 0 0 1 6.6-.7c4.6 0 8.2 1.7 8.2 5.5s-1.5 4.1-3.7 5.1c3.1 4.9 4.1 6 5.2 6.6-1.2 1.8-2.7 2.6-3.8 2.6s-3.3-3.5-6-7.8zm-.6-2.6c2.6 0 4-1.2 4-3.3s-1.5-3.3-3.8-3.3h-.5l-.3 6.6zm11.1 3.9c0-5.5 3.5-9.3 8-9.3 2.5 0 5 .8 5 3.7s-3.4 4.7-7.2 4.7h-1v.5c0 2.9 1.5 3.8 3.3 3.8s1.9-.5 4.3-2.4a1.1 1.1 0 0 1 .3.7 1.7 1.7 0 0 1-.4 1.2 6.6 6.6 0 0 1-5.8 3.6c-4-.1-6.5-2.5-6.5-6.5zm8.8-5.6c0-1.3-.5-2-1.3-2s-2.3 1.1-2.6 5.2h.5c2.2 0 3.4-.9 3.4-3.2zm5.3 9.5a5.9 5.9 0 0 1 .2-1.3 9.2 9.2 0 0 0 4.5 1.5c1.3 0 2-.5 2-1.4s-6.2-2.4-6.2-6.7 2.6-5.3 6.3-5.3 4 .7 4 2a4 4 0 0 1-.3 1.5 10.8 10.8 0 0 0-3.9-1.2c-1.3 0-1.8.5-1.8 1.4s6.1 2.4 6.1 6.8c0 2.8-2.5 5.2-6.6 5.2s-4.3-1-4.3-2.5zm12.3-3.9c0-5.8 3.6-9.3 8.1-9.3 2.9 0 4.3 1 4.3 2.5a2 2 0 0 1-1.3 1.9c-1.6-1.7-2.9-2.1-3.4-2.1s-2.7 2-2.7 5.8 1.1 4.5 2.8 4.5 1.9-.5 3.9-2.1a1.7 1.7 0 0 1-.1 2 6.6 6.6 0 0 1-5.4 3.2c-3.8 0-6.2-2.5-6.2-6.4zm14.6 2.6c0-2 .3-5.7.3-7.9s-.2-2.4-.8-2.9a7.5 7.5 0 0 1 3.7-1.1c1.4 0 1.9.5 1.9 2.1s-.4 6.3-.4 8 .2 1.8.8 1.8 3.4-4.2 4-11.2a3.3 3.3 0 0 1 2.3-.6c1.3 0 2.3.4 2.3 1.3s-.7 6.1-.7 9.4.5 3 1.4 3.3a6.2 6.2 0 0 1-3.9 1.6c-1.4 0-2.1-.6-2.1-2.6a28.8 28.8 0 0 1 .3-3.9c-1.9 4.3-4.3 6.5-6.4 6.5s-2.7-1.3-2.7-3.8zm16-2.6c0-5.5 3.5-9.3 8.1-9.3 2.5 0 4.9.8 4.9 3.7s-3.4 4.7-7.1 4.7h-1v.5c0 2.9 1.4 3.8 3.2 3.8s1.9-.5 4.3-2.4a1.1 1.1 0 0 1 .3.7 2.4 2.4 0 0 1-.3 1.2 6.7 6.7 0 0 1-5.8 3.6c-4.1-.1-6.6-2.5-6.6-6.5zm8.8-5.6c0-1.3-.5-2-1.3-2s-2.2 1.1-2.6 5.2h.5c2.2 0 3.4-.9 3.4-3.2z"/></svg>