<svg xmlns="http://www.w3.org/2000/svg" width="43.2" height="40" viewBox="0 0 32 30.1"><path fill="#be1e2d" d="M16.8 7.3a1.6 1.6 0 0 1-2.9 0c-8.8-15.9-26.8.2 1 14.9a3.7 3.7 0 0 0 3.8-.3C45.6 3.1 24.6-8.2 16.8 7.3z"/><ellipse cx="18.8" cy="28" fill="#be1e2d" rx="1.4" ry="1.9" transform="rotate(-8.4 18.476 28.054)"/><ellipse cx="15.7" cy="28.1" fill="#be1e2d" rx="1.9" ry="1.4" transform="rotate(-85.8 15.687 28.114)"/><ellipse cx="13.5" cy="25.2" fill="#be1e2d" rx="1.6" ry="1.1" transform="rotate(-70.8 13.546 25.192)"/><ellipse cx="20.9" cy="24.7" fill="#be1e2d" rx="1.1" ry="1.6" transform="rotate(-35.6 20.913 24.752)"/><path fill="#fff" d="M7.7 11.6h-.2v.9h-.3c-.2 0-.3-.1-.3-.2v-2.1h.8c.6 0 1 .2 1 .7a.7.7 0 0 1-.4.6 3.1 3.1 0 0 0 .6.9.5.5 0 0 1-.5.3c-.2-.1-.4-.5-.7-1.1zm-.1-.3a.5.5 0 0 0 .5-.4c0-.3-.2-.4-.5-.4v.8zm1.4.4a1 1 0 0 1 1-1.1.7.7 0 0 1 .8.8c0 .7-.4 1.2-1 1.2a.8.8 0 0 1-.8-.9zm1.2-.2q0-.6-.3-.6c-.2 0-.3.3-.3.8s.1.6.3.6.3-.3.3-.8zm.8.3c0-.8.4-1.2 1-1.2s.5.1.5.3a.4.4 0 0 1-.1.3l-.5-.3c-.1 0-.3.2-.3.7s.1.6.3.6l.5-.3a.2.2 0 0 1 0 .3.6.6 0 0 1-.6.4.7.7 0 0 1-.8-.8zm1.8.7v-2.1c0-.3 0-.5-.1-.6h.5c.2 0 .2.1.2.3v2.5h-.5zm.6-.9h.1l.5-.6.2-.3c.3 0 .3.1.3.2a.4.4 0 0 1-.1.3l-.4.3c.4.7.5.8.6.8s-.3.4-.4.4-.4-.5-.8-1.1z"/><path fill="#fff" d="M14.4 13.1h.2a.7.7 0 0 0 .7-.5v-.3a6.7 6.7 0 0 0-.6-1.5l.4-.2q.2 0 .3.3a7.6 7.6 0 0 1 .4 1.1 5.2 5.2 0 0 0 .2-1.1v-.3h.2a.3.3 0 0 1 .3.3 5.3 5.3 0 0 1-.7 1.8c-.4.6-.8.9-1 .9a.4.4 0 0 1-.4-.5zm3.9-1.5h-.2v.5c0 .2 0 .3.1.4h-.4c-.2 0-.3-.1-.3-.2s.1-1.3.1-1.7 0-.4-.1-.5h.8c.6 0 1 .2 1 .7a.5.5 0 0 1-.4.6l.6.9a.5.5 0 0 1-.4.3c-.3 0-.5-.4-.8-1zm-.1-.3c.4 0 .5-.2.5-.4a.4.4 0 0 0-.4-.4h-.1v.8zm1.4.4a1 1 0 0 1 1-1.1c.6 0 .9.3.9.8a1.1 1.1 0 0 1-1.1 1.2.8.8 0 0 1-.8-.9zm1.2-.2c0-.4 0-.6-.2-.6s-.4.3-.4.8.1.6.3.6.3-.3.3-.8zm.8.4c0-.8.4-1.3.9-1.3h.9c0 .1-.1.8-.1 1.2a.6.6 0 0 0 .2.5l-.4.2a.4.4 0 0 1-.4-.4v-.3c-.3.5-.5.7-.8.7s-.3-.2-.3-.6zm1.2-.9l-.2-.2c-.2 0-.4.5-.4 1.1s0 .2.1.2.5-.7.5-1.1zm.9.9c0-.8.4-1.3.8-1.3h.4v-.4c0-.2 0-.4-.1-.4l.5-.2c.1 0 .2.1.2.3s-.1 1.6-.1 1.8.1.5.2.6l-.4.2a.4.4 0 0 1-.4-.4v-.4c-.3.6-.6.8-.8.8s-.3-.2-.3-.6zm1.2-.9l-.2-.2c-.3 0-.4.5-.4 1.1s0 .2.1.2.5-.7.5-1.1zM12 16.1h-.2v.9h-.3c-.3 0-.3-.1-.3-.2v-1.6c0-.3 0-.4-.1-.5h.9c.5 0 1 .2 1 .7a.6.6 0 0 1-.5.6l.7.9-.5.3c-.3-.1-.4-.5-.7-1.1zm-.1-.3a.5.5 0 0 0 .5-.4c0-.3-.2-.4-.5-.4h-.1v.8zm1.4.5c0-.7.4-1.2 1-1.2s.6.1.6.5-.4.6-.9.6h-.1c0 .4.2.5.4.5l.5-.3a.1.1 0 0 1 .1.1h-.1c-.2.3-.4.5-.7.5a.7.7 0 0 1-.8-.7zm1.1-.7c0-.2-.1-.3-.2-.3s-.3.2-.3.7h.1a.4.4 0 0 0 .4-.4zm.6 1.2c0-.1 0-.1.1-.2l.5.2c.2 0 .3-.1.3-.2s-.8-.3-.8-.8a.7.7 0 0 1 .8-.7c.3 0 .5.1.5.3v.2l-.4-.2c-.2 0-.3.1-.3.2s.8.3.8.8a.7.7 0 0 1-.8.7q-.7 0-.7-.3zm1.6-.5c0-.8.4-1.2 1-1.2s.5.1.5.3a.4.4 0 0 1-.1.3l-.5-.3c-.1 0-.3.2-.3.7s.1.6.3.6l.5-.3a.2.2 0 0 1 0 .3.6.6 0 0 1-.6.4.7.7 0 0 1-.8-.8zm1.8.3v-1c0-.2 0-.3-.1-.3l.5-.2c.2 0 .2.1.2.3v1c0 .2 0 .2.1.2s.4-.5.5-1.4h.3c.1 0 .3.1.3.2s-.1.8-.1 1.2 0 .3.1.4l-.4.2c-.2 0-.3-.1-.3-.4v-.4c-.2.5-.5.8-.8.8s-.3-.3-.3-.6zm2-.3c0-.7.4-1.2 1-1.2s.6.1.6.5-.4.6-.9.6H21c0 .4.2.5.4.5l.6-.3a.1.1 0 0 1-.1.1.8.8 0 0 1-.7.5.7.7 0 0 1-.8-.7zm1.1-.7c0-.2-.1-.3-.2-.3s-.2.2-.3.7h.1c.3 0 .4-.1.4-.4z"/></svg>