<svg xmlns="http://www.w3.org/2000/svg" width="84.8" height="80" viewBox="0 0 63.6 59.7"><path fill="#be1e2d" d="M33.4 14.5a3.2 3.2 0 0 1-5.7.1C10.1-17-25.7 14.8 29.6 44a7.4 7.4 0 0 0 7.6-.4c53.4-37.5 11.7-59.9-3.8-29.1z"/><ellipse cx="37.4" cy="55.6" fill="#be1e2d" rx="2.7" ry="3.8" transform="rotate(-8.4 37.002 55.427)"/><ellipse cx="31.1" cy="55.9" fill="#be1e2d" rx="3.8" ry="2.7" transform="rotate(-85.8 31.156 55.924)"/><ellipse cx="26.9" cy="50.1" fill="#be1e2d" rx="3.2" ry="2.3" transform="rotate(-70.8 26.91 50.044)"/><ellipse cx="41.6" cy="49" fill="#be1e2d" rx="2.3" ry="3.2" transform="rotate(-35.6 41.614 49.092)"/><path fill="#fff" d="M15.2 23.1h-.3v1.8l-.6.2c-.5 0-.6-.1-.6-.4s.1-2.6.1-3.3 0-.9-.2-1a4.7 4.7 0 0 1 1.7-.2c1.1 0 2 .4 2 1.4a1.4 1.4 0 0 1-.9 1.2c.8 1.2 1 1.5 1.3 1.7a1.4 1.4 0 0 1-1 .6c-.5-.1-.8-1-1.5-2zm-.1-.7c.7 0 1-.3 1-.8s-.4-.8-1-.8H15v1.6zm2.8.9a2 2 0 0 1 2-2.2 1.5 1.5 0 0 1 1.6 1.6 2.1 2.1 0 0 1-2.1 2.3c-1 0-1.5-.7-1.5-1.7zm2.4-.5q0-1.2-.6-1.2c-.4 0-.6.7-.6 1.7s.1 1.2.5 1.2.7-.7.7-1.7zm1.5.6a2 2 0 0 1 2-2.3c.7 0 1.1.2 1.1.6a.9.9 0 0 1-.3.5 2.1 2.1 0 0 0-.9-.6c-.4 0-.7.5-.7 1.5s.3 1.1.7 1.1a1.7 1.7 0 0 0 1-.5.4.4 0 0 1 0 .5 1.9 1.9 0 0 1-1.4.8 1.4 1.4 0 0 1-1.5-1.6zm3.5 1.3c0-.2.2-3.3.2-4.1a1.6 1.6 0 0 0-.2-1 1.9 1.9 0 0 1 .9-.3c.3 0 .5.1.5.6l-.2 4.9a.8.8 0 0 1-.6.2.6.6 0 0 1-.6-.3zm1.4-1.6a.4.4 0 0 1 .1-.3l1-1.1a1.3 1.3 0 0 0 .3-.7c.7.1.8.3.8.5s-.1.3-.3.5l-.9.7c.8 1.3 1.1 1.5 1.3 1.5s-.6.8-.8.8-.8-.8-1.5-1.9z"/><path fill="#fff" d="M28.7 26h.2a1.6 1.6 0 0 0 1.6-1 2 2 0 0 1-.1-.5c-.6-1.9-1-2.8-1.3-3a1.2 1.2 0 0 1 .8-.4.9.9 0 0 1 .8.6 9 9 0 0 1 .6 2.2 6 6 0 0 0 .6-2.3 1.1 1.1 0 0 0-.2-.6h.5c.3 0 .5.1.5.5a10.6 10.6 0 0 1-1.3 3.5c-.8 1.3-1.6 1.8-2.1 1.8s-.6-.3-.6-.8zm7.7-2.9H36v1.8l-.6.2c-.5 0-.6-.1-.6-.4s.1-2.6.1-3.3 0-.9-.2-1a5 5 0 0 1 1.7-.2c1.1 0 2 .4 2 1.4a1.3 1.3 0 0 1-.9 1.2c.8 1.2 1 1.5 1.3 1.7a1.4 1.4 0 0 1-.9.6c-.6-.1-.9-1-1.5-2zm-.2-.7c.7 0 1-.3 1-.8s-.4-.8-1-.8h-.1v1.6zm2.8.9a2 2 0 0 1 2-2.2 1.4 1.4 0 0 1 1.6 1.6 2 2 0 0 1-2 2.3 1.5 1.5 0 0 1-1.6-1.7zm2.4-.5c0-.8-.2-1.2-.5-1.2s-.7.7-.7 1.7.1 1.2.5 1.2.7-.7.7-1.7zm1.5.8c0-1.5.8-2.5 1.9-2.5a1 1 0 0 1 .7.2.7.7 0 0 1 .6-.2c.3 0 .4 0 .4.2s-.2 1.5-.2 2.4.1.8.3.9a1.2 1.2 0 0 1-.8.4c-.4 0-.6-.2-.6-.7v-.7c-.4 1-1 1.4-1.4 1.4s-.9-.5-.9-1.4zm2.4-1.7c0-.2-.3-.4-.4-.4s-.8 1-.8 2.1.1.5.2.5 1-1.5 1-2.2zm1.7 1.7c0-1.5.8-2.5 1.8-2.5l.7.2v-.8c-.1-.5-.1-.7-.3-.9l.9-.3a.5.5 0 0 1 .6.6c0 .3-.2 3-.2 3.5s.1 1.1.2 1.2a1.3 1.3 0 0 1-.7.4.6.6 0 0 1-.7-.7c0-.2.1-.6.1-.8S48.3 25 47.9 25s-.9-.5-.9-1.4zm2.4-1.7c0-.2-.3-.4-.4-.4s-.8 1-.8 2.1.1.5.2.5 1-1.5 1-2.2zM23.8 32h-.4v1.7c-.1.2-.4.2-.6.2s-.6-.1-.6-.3.1-2.6.1-3.4 0-.8-.2-1l1.7-.2c1.1 0 2 .5 2 1.4a1.4 1.4 0 0 1-.9 1.3c.8 1.2 1 1.4 1.3 1.6a1.4 1.4 0 0 1-.9.6c-.6 0-.9-.8-1.5-1.9zm-.2-.6c.7 0 1-.3 1-.9s-.4-.8-1-.8h-.1v1.7zm2.8.9a2.1 2.1 0 0 1 2-2.3c.6 0 1.2.2 1.2.9s-.9 1.2-1.8 1.2h-.2c0 .7.3.9.8.9s.4-.1 1-.6a.3.3 0 0 1 .1.2.4.4 0 0 1-.1.3 1.6 1.6 0 0 1-1.4.9 1.5 1.5 0 0 1-1.6-1.5zm2.1-1.4c0-.3-.1-.5-.3-.5s-.5.3-.6 1.3h.1c.6 0 .8-.2.8-.8zm1.4 2.4V33a2 2 0 0 0 1.1.3c.3 0 .5-.1.5-.3s-1.5-.6-1.5-1.7.6-1.3 1.6-1.3.9.2.9.5v.4l-1-.3c-.3 0-.4.1-.4.3s1.5.6 1.5 1.7-.7 1.3-1.7 1.3-1-.2-1-.6zm3-1a2.1 2.1 0 0 1 2-2.3c.7 0 1.1.3 1.1.6a.5.5 0 0 1-.3.5 1.4 1.4 0 0 0-.9-.5c-.3 0-.7.5-.7 1.4s.3 1.1.7 1.1a1.7 1.7 0 0 0 1-.5.4.4 0 0 1 0 .5 1.5 1.5 0 0 1-2.9-.8zm3.6.7c0-.5.1-1.5.1-2s0-.6-.2-.7l.9-.3c.4 0 .5.1.5.5s-.1 1.6-.1 2 .1.5.2.5.9-1.1 1-2.8l.6-.2c.3 0 .5.1.5.4s-.1 1.5-.1 2.3.1.7.3.8a1.4 1.4 0 0 1-.9.4c-.4 0-.6-.1-.6-.6s.1-.7.1-1-1.1 1.6-1.6 1.6-.7-.3-.7-.9zm4-.7a2.2 2.2 0 0 1 2-2.3c.6 0 1.2.2 1.2.9s-.8 1.2-1.7 1.2h-.3c0 .7.4.9.8.9s.5-.1 1.1-.6a.3.3 0 0 0 .1.2c0 .1-.1.2-.1.3a1.8 1.8 0 0 1-1.5.9 1.5 1.5 0 0 1-1.6-1.5zm2.2-1.4c0-.3-.1-.5-.3-.5s-.6.3-.7 1.3h.2c.5 0 .8-.2.8-.8z"/></svg>